{"title":"Black Snow - 1965 - Tetsuji Takechi","uid":9034923,"size":1172780319,"categoryP":"video","categoryS":"movies","magnet":"?xt=urn:btih:e247af9cc7bb94d3914532baacf1fc4f3e293499&amp;dn=Black+Snow+-+1965+-+Tetsuji+Takechi&amp;tr=udp%3A%2F%2Ftracker.openbittorrent.com%3A80&amp;tr=udp%3A%2F%2Fopen.demonii.com%3A1337&amp;tr=udp%3A%2F%2Ftracker.coppersurfer.tk%3A6969&amp;tr=udp%3A%2F%2Fexodus.desync.com%3A6969","seeders":1,"leechers":0,"uploader":"cavallone","files":2,"time":1381492036,"description":"Plot: Black Snow tells the tale of a disturbed young man who, after spying on his mother with a black serviceman, finds himself unable to attain sexual arousal unless fondling a loaded gun. Later that night, he murders the GI before running amok through the building and finally slaying his mother's sister.\n\n\nRip specs:\n\n\nFormat                                   : Matroska\nFormat version                           : Version 2\nFile size                                : 1.09 GiB\nDuration                                 : 1h 29mn\nOverall bit rate                         : 1 747 Kbps\nEncoded date                             : UTC 2013-08-05 00:55:01\nWriting application                      : mkvmerge v4.9.1 ('Ich will') built on Jul 11 2011 23:53:15\nWriting library                          : libebml v1.2.1 + libmatroska v1.1.1\n\nVideo\nID                                       : 2\nFormat                                   : AVC\nFormat/Info                              : Advanced Video Codec\nFormat profile                           : &lt;a class=&quot;__cf_email__&quot; href=&quot;/cdn-cgi/l/email-protection&quot; data-cfemail=&quot;c880a1afa08884fce6f9&quot;&gt;[email&amp;#160;protected]&lt;/a&gt;&lt;script cf-hash='f9e31' type=&quot;text/javascript&quot;&gt;\n/* &lt;![CDATA[ */!function(){try{var t=&quot;currentScript&quot;in document?document.currentScript:function(){for(var t=document.getElementsByTagName(&quot;script&quot;),e=t.length;e--;)if(t[e].getAttribute(&quot;cf-hash&quot;))return t[e]}();if(t&amp;&amp;t.previousSibling){var e,r,n,i,c=t.previousSibling,a=c.getAttribute(&quot;data-cfemail&quot;);if(a){for(e=&quot;&quot;,r=parseInt(a.substr(0,2),16),n=2;a.length-n;n+=2)i=parseInt(a.substr(n,2),16)^r,e+=String.fromCharCode(i);e=document.createTextNode(e),c.parentNode.replaceChild(e,c)}}}catch(u){}}();/* ]]&gt; */&lt;/script&gt;\nFormat settings, CABAC                   : Yes\nFormat settings, ReFrames                : 16 frames\nMuxing mode                              : Header stripping\nCodec ID                                 : V_MPEG4/ISO/AVC\nDuration                                 : 1h 29mn\nBit rate                                 : 1 362 Kbps\nWidth                                    : 716 pixels\nHeight                                   : 372 pixels\nDisplay aspect ratio                     : 2.25:1\nOriginal display aspect ratio            : 2.25:1\nFrame rate mode                          : Constant\nFrame rate                               : 23.976 fps\nColor space                              : YUV\nChroma subsampling                       : 4:2:0\nBit depth                                : 8 bits\nScan type                                : Progressive\nBits/(Pixel*Frame)                       : 0.213\nStream size                              : 850 MiB (76%)\nWriting library                          : x264 core 125 r2200 999b753\nEncoding settings                        : cabac=1 // deblock=1:-2:-1 / analyse=0x3:0x133 / me=umh / subme=10 / psy=1 / psy_rd=1.20:0.15 // me_range=24 / chroma_me=1 / trellis=2 / 8x8dct=1 / cqm=0 / deadzone=21,11 / fast_pskip=0 / chroma_qp_offset=-3 / threads=6 / lookahead_threads=1 / sliced_threads=0 / nr=0 / decimate=0 / interlaced=0 / bluray_compat=0 / constrained_intra=0 / bframes=8 / b_pyramid=2 / b_adapt=2 / b_bias=0 / direct=3 / weightb=1 / open_gop=0 / weightp=2 / keyint=250 / keyint_min=23 / scenecut=40 / intra_refresh=0 / rc_lookahead=60 / rc=2pass / mbtree=1 / bitrate=1362 / ratetol=1.0 / qcomp=0.60 / qpmin=0 / qpmax=69 / qpstep=4 / cplxblur=20.0 / qblur=0.5 / ip_ratio=1.40 / aq=1:0.80\nLanguage                                 : Japanese\nDefault                                  : Yes\nForced                                   : No\n\nAudio\nID                                       : 1\nFormat                                   : AC-3\nFormat/Info                              : Audio Coding 3\nMode extension                           : CM (complete main)\nFormat settings, Endianness              : Big\nMuxing mode                              : Header stripping\nCodec ID                                 : A_AC3\nDuration                                 : 1h 29mn\nBit rate mode                            : Constant\nBit rate                                 : 384 Kbps\nChannel(s)                               : 2 channels\nChannel positions                        : Front: L R\nSampling rate                            : 48.0 KHz\nBit depth                                : 16 bits\nCompression mode                         : Lossy\nStream size                              : 246 MiB (22%)\nLanguage                                 : Japanese\nDefault                                  : Yes\nForced                                   : No\n\n\n","torrent":{"xt":"urn:btih:e247af9cc7bb94d3914532baacf1fc4f3e293499","amp;dn":"Black+Snow+-+1965+-+Tetsuji+Takechi","amp;tr":["udp%3A%2F%2Ftracker.openbittorrent.com%3A80","udp%3A%2F%2Fopen.demonii.com%3A1337","udp%3A%2F%2Ftracker.coppersurfer.tk%3A6969","udp%3A%2F%2Fexodus.desync.com%3A6969"],"infoHash":"e247af9cc7bb94d3914532baacf1fc4f3e293499","infoHashBuffer":{"type":"Buffer","data":[226,71,175,156,199,187,148,211,145,69,50,186,172,241,252,79,62,41,52,153]},"announce":[],"urlList":[]}}